<svg width="90" height="90" viewBox="0 0 90 90" xmlns="http://www.w3.org/2000/svg">
  <rect x="0" y="0" width="90" height="90" rx="15" fill="blue"/>

  <path fill="white" d="
    M20 10h20v10h-20z
    M50 10h10v10h-10z
    M40 20h10v30h-10z
    M40 60h10v10h-10z
    M30 70h30v10h-30z
    M70 70h10v10h-10z
    M70 60h10v10h-10z
    M50 40h20v10h-20z
    M20 40h10v10h-10z
  "/>

  <path fill="lightblue" d="
    M10 10h10v10h-10z
    M40 10h10v10h-10z
    M40 50h10v10h-10z
    M60 70h10v10h-10z
    M70 50h10v10h-10z
    M30 40h10v10h-10z
  "/>
</svg>
